<svg width="192" height="192" viewBox="0 0 192 192" fill="none" xmlns="http://www.w3.org/2000/svg">
<path d="M169.425 77.1C166.575 74.175 163.65 71.1 162.525 68.475C161.4 65.85 161.475 61.95 161.4 57.975C161.325 50.7 161.175 42.375 155.4 36.6C149.625 30.825 141.3 30.675 134.025 30.6C130.05 30.525 126 30.45 123.525 29.475C121.05 28.5 117.825 25.425 114.9 22.575C109.725 17.625 103.8 12 96 12C88.2 12 82.275 17.625 77.1 22.575C74.175 25.425 71.1 28.35 68.475 29.475C65.85 30.6 61.95 30.525 57.975 30.6C50.7 30.675 42.375 30.825 36.6 36.6C30.825 42.375 30.675 50.7 30.6 57.975C30.525 61.95 30.45 66 29.475 68.475C28.5 70.95 25.425 74.175 22.575 77.1C17.625 82.275 12 88.2 12 96C12 103.8 17.625 109.725 22.575 114.9C25.425 117.825 28.35 120.9 29.475 123.525C30.6 126.15 30.525 130.05 30.6 134.025C30.675 141.3 30.825 149.625 36.6 155.4C42.375 161.175 50.7 161.325 57.975 161.4C61.95 161.475 66 161.55 68.475 162.525C70.95 163.5 74.175 166.575 77.1 169.425C82.275 174.375 88.2 180 96 180C103.8 180 109.725 174.375 114.9 169.425C117.825 166.575 120.9 163.65 123.525 162.525C126.15 161.4 130.05 161.475 134.025 161.4C141.3 161.325 149.625 161.175 155.4 155.4C161.175 149.625 161.325 141.3 161.4 134.025C161.475 130.05 161.55 126 162.525 123.525C163.5 121.05 166.575 117.825 169.425 114.9C174.375 109.725 180 103.8 180 96C180 88.2 174.375 82.275 169.425 77.1ZM133.125 82.35L89.175 124.35C88.0388 125.419 86.5349 126.01 84.975 126C83.438 126.006 81.9589 125.414 80.85 124.35L58.875 103.35C58.2655 102.818 57.7698 102.169 57.4177 101.44C57.0656 100.712 56.8644 99.9204 56.8262 99.1124C56.788 98.3044 56.9135 97.4971 57.1953 96.7389C57.477 95.9806 57.9092 95.2872 58.4658 94.7003C59.0223 94.1134 59.6918 93.645 60.434 93.3234C61.1762 93.0018 61.9758 92.8336 62.7847 92.8289C63.5935 92.8242 64.395 92.9831 65.1409 93.2961C65.8867 93.609 66.5616 94.0696 67.125 94.65L84.975 111.675L124.875 73.65C126.042 72.6322 127.557 72.1047 129.103 72.1779C130.65 72.251 132.108 72.9192 133.173 74.0426C134.239 75.166 134.828 76.6578 134.819 78.206C134.81 79.7542 134.203 81.239 133.125 82.35Z" fill="#F1F1F1"/>
</svg>
