<svg width="192" height="192" viewBox="0 0 192 192" fill="none" xmlns="http://www.w3.org/2000/svg">
<path d="M168 132.975V59.0252C167.994 57.957 167.707 56.9092 167.167 55.9875C166.627 55.0658 165.854 54.3027 164.925 53.7752L98.925 16.6502C98.0357 16.1368 97.0269 15.8665 96 15.8665C94.9731 15.8665 93.9643 16.1368 93.075 16.6502L27.075 53.7752C26.1461 54.3027 25.3728 55.0658 24.8329 55.9875C24.293 56.9092 24.0057 57.957 24 59.0252V132.975C24.0057 134.043 24.293 135.091 24.8329 136.013C25.3728 136.935 26.1461 137.698 27.075 138.225L93.075 175.35C93.9643 175.864 94.9731 176.134 96 176.134C97.0269 176.134 98.0357 175.864 98.925 175.35L164.925 138.225C165.854 137.698 166.627 136.935 167.167 136.013C167.707 135.091 167.994 134.043 168 132.975Z" stroke="#F1F1F1" stroke-width="12" stroke-linecap="round" stroke-linejoin="round"/>
<path d="M167.175 55.9497L96.6751 95.9997L24.8251 55.9497" stroke="#F1F1F1" stroke-width="12" stroke-linecap="round" stroke-linejoin="round"/>
<path d="M96.675 96L96 176.1" stroke="#F1F1F1" stroke-width="12" stroke-linecap="round" stroke-linejoin="round"/>
</svg>
