<svg width="18" height="18" viewBox="0 0 18 18" fill="none" xmlns="http://www.w3.org/2000/svg">
<path d="M17.3882 8.77502C17.3671 8.71877 16.7694 7.39689 15.4476 6.06798C13.6827 4.31017 11.4538 3.37502 8.99992 3.37502C8.48167 3.37407 7.96425 3.41641 7.45304 3.50158C7.35427 3.52009 7.26215 3.5644 7.18604 3.63002C7.10993 3.69564 7.05254 3.78023 7.01969 3.87521C6.98684 3.97018 6.97971 4.07215 6.99901 4.17078C7.01832 4.2694 7.06337 4.36116 7.12961 4.43673L14.2523 12.2695C14.3049 12.3271 14.369 12.3731 14.4405 12.4046C14.5119 12.4361 14.5891 12.4523 14.6671 12.4524C14.8061 12.4505 14.9402 12.4008 15.0468 12.3117C16.6499 10.8703 17.3601 9.29533 17.3882 9.23205C17.4193 9.15989 17.4354 9.08213 17.4354 9.00353C17.4354 8.92494 17.4193 8.84717 17.3882 8.77502Z" fill="#AAAAAA"/>
<path d="M3.7898 2.43283C3.68817 2.32651 3.54895 2.26423 3.40196 2.25932C3.25496 2.25441 3.11189 2.30726 3.0034 2.40656C2.89491 2.50586 2.82962 2.6437 2.82153 2.79056C2.81344 2.93741 2.86318 3.08159 2.96011 3.19221L4.31011 4.6758C1.75777 6.24377 0.66089 8.66252 0.611672 8.77502C0.580522 8.84718 0.564453 8.92494 0.564453 9.00354C0.564453 9.08213 0.580522 9.15989 0.611672 9.23205C0.632765 9.28127 1.23042 10.6031 2.5523 11.9321C4.31714 13.6899 6.54605 14.625 8.99995 14.625C10.261 14.6336 11.5095 14.3748 12.6632 13.8656L14.2101 15.5672C14.2628 15.6248 14.3269 15.6708 14.3983 15.7023C14.4697 15.7337 14.5469 15.75 14.625 15.75C14.7653 15.7486 14.9003 15.6961 15.0046 15.6024C15.0599 15.553 15.1048 15.4931 15.1366 15.4261C15.1684 15.3592 15.1864 15.2865 15.1897 15.2125C15.193 15.1385 15.1814 15.0645 15.1556 14.995C15.1299 14.9255 15.0905 14.8619 15.0398 14.8078L3.7898 2.43283ZM8.99995 11.5313C8.53738 11.531 8.08374 11.4039 7.6883 11.1639C7.29286 10.9239 6.97074 10.5801 6.75695 10.1699C6.54315 9.75974 6.44584 9.2988 6.4756 8.83718C6.50536 8.37557 6.66104 7.93094 6.92573 7.55158L10.2445 11.2008C9.86581 11.4182 9.4366 11.5322 8.99995 11.5313Z" fill="#AAAAAA"/>
</svg>
