<svg width="18" height="18" viewBox="0 0 18 18" fill="none" xmlns="http://www.w3.org/2000/svg">
<path d="M15.1735 8.31094C15.1527 8.22027 15.1096 8.1362 15.0483 8.06625C14.9869 7.99631 14.9092 7.94267 14.822 7.91016L10.772 6.39141L11.7985 1.2375C11.8222 1.11811 11.8069 0.994307 11.755 0.884223C11.7031 0.774138 11.6174 0.683566 11.5103 0.625781C11.4021 0.568246 11.278 0.548083 11.1571 0.56843C11.0363 0.588777 10.9256 0.648492 10.8423 0.738281L2.9673 9.17578C2.90277 9.24273 2.85608 9.3248 2.83151 9.41448C2.80694 9.50416 2.80528 9.59857 2.82667 9.68906C2.84868 9.77923 2.89214 9.86275 2.95335 9.93253C3.01455 10.0023 3.0917 10.0563 3.17823 10.0898L7.22823 11.6086L6.20167 16.7625C6.17806 16.8819 6.19331 17.0057 6.24519 17.1158C6.29707 17.2259 6.38285 17.3164 6.48995 17.3742C6.57068 17.4149 6.65969 17.4366 6.75011 17.4375C6.82652 17.4378 6.90217 17.4224 6.97234 17.3921C7.04252 17.3619 7.10569 17.3175 7.15792 17.2617L15.0329 8.82422C15.0974 8.75727 15.1441 8.67519 15.1687 8.58552C15.1933 8.49584 15.1949 8.40143 15.1735 8.31094Z" fill="black"/>
</svg>
