<svg width="18" height="18" viewBox="0 0 18 18" fill="none" xmlns="http://www.w3.org/2000/svg">
<path d="M15.1875 4.21875H2.8125" stroke="black" stroke-width="1.6875" stroke-linecap="round" stroke-linejoin="round"/>
<path d="M7.3125 7.3125V11.8125" stroke="black" stroke-width="1.6875" stroke-linecap="round" stroke-linejoin="round"/>
<path d="M10.6875 7.3125V11.8125" stroke="black" stroke-width="1.6875" stroke-linecap="round" stroke-linejoin="round"/>
<path d="M14.0625 4.21875V14.625C14.0625 14.7742 14.0032 14.9173 13.8977 15.0227C13.7923 15.1282 13.6492 15.1875 13.5 15.1875H4.5C4.35082 15.1875 4.20774 15.1282 4.10225 15.0227C3.99676 14.9173 3.9375 14.7742 3.9375 14.625V4.21875" stroke="black" stroke-width="1.6875" stroke-linecap="round" stroke-linejoin="round"/>
<path d="M11.8125 4.21875V2.53125C11.8125 2.23288 11.694 1.94673 11.483 1.73575C11.272 1.52478 10.9859 1.40625 10.6875 1.40625H7.3125C7.01413 1.40625 6.72798 1.52478 6.51701 1.73575C6.30603 1.94673 6.1875 2.23288 6.1875 2.53125V4.21875" stroke="black" stroke-width="1.6875" stroke-linecap="round" stroke-linejoin="round"/>
</svg>
