<svg width="18" height="18" viewBox="0 0 18 18" fill="none" xmlns="http://www.w3.org/2000/svg">
<path d="M6.1875 11.25C8.20679 11.25 9.84375 9.61304 9.84375 7.59375C9.84375 5.57446 8.20679 3.9375 6.1875 3.9375C4.16821 3.9375 2.53125 5.57446 2.53125 7.59375C2.53125 9.61304 4.16821 11.25 6.1875 11.25Z" stroke="black" stroke-width="1.6875" stroke-linecap="round" stroke-linejoin="round"/>
<path d="M10.9265 4.07109C11.2497 3.98343 11.583 3.93852 11.9179 3.9375C12.8876 3.9375 13.8176 4.32271 14.5033 5.00839C15.189 5.69407 15.5742 6.62405 15.5742 7.59375C15.5742 8.56345 15.189 9.49343 14.5033 10.1791C13.8176 10.8648 12.8876 11.25 11.9179 11.25" stroke="black" stroke-width="1.6875" stroke-linecap="round" stroke-linejoin="round"/>
<path d="M1.125 13.8797C1.6959 13.0673 2.45393 12.4042 3.33507 11.9465C4.2162 11.4887 5.19456 11.2498 6.1875 11.2498C7.18044 11.2498 8.1588 11.4887 9.03993 11.9465C9.92107 12.4042 10.6791 13.0673 11.25 13.8797" stroke="black" stroke-width="1.6875" stroke-linecap="round" stroke-linejoin="round"/>
<path d="M11.918 11.25C12.911 11.2494 13.8895 11.4881 14.7708 11.9458C15.652 12.4036 16.41 13.0669 16.9805 13.8797" stroke="black" stroke-width="1.6875" stroke-linecap="round" stroke-linejoin="round"/>
</svg>
