<svg width="18" height="18" viewBox="0 0 18 18" fill="none" xmlns="http://www.w3.org/2000/svg">
<path d="M12.6562 11.25C13.2776 11.25 13.7812 10.7463 13.7812 10.125C13.7812 9.50368 13.2776 9 12.6562 9C12.0349 9 11.5312 9.50368 11.5312 10.125C11.5312 10.7463 12.0349 11.25 12.6562 11.25Z" fill="black"/>
<path d="M2.81263 4.78125V13.5C2.81263 13.7984 2.93116 14.0845 3.14213 14.2955C3.35311 14.5065 3.63926 14.625 3.93763 14.625H15.1876C15.3368 14.625 15.4799 14.5657 15.5854 14.4602C15.6909 14.3548 15.7501 14.2117 15.7501 14.0625V6.75C15.7501 6.60082 15.6909 6.45774 15.5854 6.35225C15.4799 6.24676 15.3368 6.1875 15.1876 6.1875H4.25404C3.88493 6.19158 3.5286 6.05251 3.25984 5.79949C2.99107 5.54646 2.83079 5.19915 2.81263 4.83047C2.80602 4.6417 2.8375 4.45353 2.90521 4.27719C2.97291 4.10086 3.07545 3.93997 3.2067 3.80413C3.33794 3.66829 3.49521 3.56028 3.66911 3.48655C3.84302 3.41282 4.02999 3.37488 4.21888 3.375H13.5001" stroke="black" stroke-width="1.6875" stroke-linecap="round" stroke-linejoin="round"/>
</svg>
